<svg width="160" height="40" viewBox="0 0 160 40" fill="none" xmlns="http://www.w3.org/2000/svg">
<g clip-path="url(#clip0_303_763)">
<path d="M28.9285 0L45.6941 40V0H28.9285ZM0.428711 0V40L17.1943 0H0.428711ZM15.7568 31.8429H23.4124L26.7722 39.9833H33.7091L22.9444 14.6093L15.7568 31.8429Z" fill="white"/>
<path d="M73.7926 25.8086L71.9539 31.3414C71.887 31.542 71.7867 31.6089 71.5862 31.6089H68.2264C68.0258 31.6089 67.9589 31.5086 67.9923 31.2745L74.9125 11.6005C75.0462 11.2662 75.1465 10.9319 75.2134 9.79523C75.2134 9.66151 75.2803 9.56122 75.414 9.56122H80.0776C80.2447 9.56122 80.2782 9.59465 80.3116 9.7618L88.0675 31.3247C88.101 31.5253 88.0675 31.6256 87.867 31.6256H84.106C83.9388 31.6256 83.8385 31.5587 83.7717 31.425L81.816 25.8253H73.7926V25.8086ZM80.7462 22.1479C80.0441 19.9248 78.4562 15.2612 77.7876 12.921H77.7541C77.2192 15.1776 75.8653 19.1057 74.8624 22.1479H80.7462Z" fill="white"/>
<path d="M89.271 23.4852C89.271 18.621 92.8982 14.7263 98.8155 14.7263C99.2835 14.7263 99.6847 14.7597 100.253 14.8266V7.93983C100.253 7.77267 100.32 7.70581 100.454 7.70581H104.114C104.281 7.70581 104.281 7.77267 104.281 7.9064V28.1822C104.281 28.8508 104.348 29.72 104.415 30.3385C104.415 30.5056 104.382 30.5725 104.215 30.6394C102.025 31.5754 99.8853 31.9432 97.8627 31.9432C92.9985 31.9599 89.271 29.135 89.271 23.4852ZM100.253 18.3535C99.8184 18.1864 99.2835 18.1195 98.6818 18.1195C95.6897 18.1195 93.4499 20.0418 93.4499 23.2846C93.4499 26.9453 95.6396 28.4496 98.314 28.4496C98.9826 28.4496 99.6513 28.3828 100.27 28.1822V18.3535H100.253Z" fill="white"/>
<path d="M123.655 23.2512C123.655 28.4497 120.328 31.9432 115.598 31.9432C109.981 31.9432 107.508 27.6139 107.508 23.3514C107.508 18.5876 110.633 14.7263 115.665 14.7263C120.846 14.7263 123.655 18.6544 123.655 23.2512ZM111.603 23.2846C111.603 26.3769 113.107 28.5165 115.665 28.5165C117.754 28.5165 119.526 26.8115 119.526 23.3514C119.526 20.56 118.322 18.1195 115.464 18.1195C113.224 18.1195 111.603 20.0919 111.603 23.2846Z" fill="white"/>
<path d="M130.575 7.70581C130.809 7.70581 130.876 7.73924 130.876 7.97326L130.909 15.1943C131.812 14.8934 132.865 14.7263 133.968 14.7263C138.799 14.7263 141.891 18.1529 141.891 22.6494C141.891 28.8675 137.061 31.9432 132.079 31.9432C130.341 31.9432 128.653 31.7092 127.048 31.2077C126.914 31.1743 126.814 31.0071 126.814 30.9068V7.93983C126.814 7.77267 126.914 7.70581 127.048 7.70581H130.575ZM133.266 18.1864C132.096 18.1864 131.461 18.3535 130.909 18.5541V28.3661C131.377 28.4998 131.879 28.5332 132.447 28.5332C135.205 28.5332 137.746 26.7948 137.746 23.0673C137.763 19.8579 135.924 18.1864 133.266 18.1864Z" fill="white"/>
<path d="M148.377 24.2708C148.477 26.6277 150.015 28.4998 153.442 28.4998C154.946 28.4998 156.333 28.2324 157.604 27.6975C157.704 27.6306 157.804 27.664 157.804 27.8312V30.6227C157.804 30.8232 157.737 30.9235 157.604 30.9904C156.333 31.5922 154.846 31.9599 152.572 31.9599C146.455 31.9599 144.281 27.664 144.281 23.5353C144.281 18.8717 147.106 14.743 152.171 14.743C157.136 14.743 159.058 18.6377 159.058 21.8304C159.058 22.7664 159.024 23.5353 158.924 23.9198C158.891 24.0535 158.824 24.1204 158.657 24.1538C158.189 24.2541 156.851 24.2875 155.197 24.2875H148.377V24.2708ZM153.375 21.379C154.645 21.379 155.08 21.379 155.213 21.3456C155.213 21.2453 155.213 21.1116 155.213 21.0782C155.213 20.1087 154.545 17.9524 151.987 17.9524C149.664 17.9524 148.628 19.7242 148.36 21.379H153.375Z" fill="white"/>
</g>
<defs>
<clipPath id="clip0_303_763">
<rect width="158.629" height="40" fill="white" transform="translate(0.428711)"/>
</clipPath>
</defs>
</svg>
