<svg width="200" height="40" viewBox="0 0 200 40" fill="none" xmlns="http://www.w3.org/2000/svg">
<g clip-path="url(#clip0_303_818)">
<path d="M17.558 9.1456C17.4476 9 17.322 8.9236 17.1824 8.9236C17.0672 8.9236 16.962 8.9752 16.8944 9.0184C15.8336 9.8516 14.382 13.3812 13.1924 18.032L14.2456 18.044C16.3252 18.0676 18.4728 18.092 20.5956 18.1248C20.036 15.9944 19.5072 14.1684 19.0224 12.6944C18.314 10.54 17.8352 9.5756 17.558 9.1456Z" fill="white"/>
<path fill-rule="evenodd" clip-rule="evenodd" d="M39.8395 20.0988C39.8395 31.1 30.9211 40.0188 19.9195 40.0188C8.9179 40.0188 -0.000488281 31.1 -0.000488281 20.0988C-0.000488281 9.0972 8.9179 0.178802 19.9195 0.178802C30.9211 0.178802 39.8395 9.0972 39.8395 20.0988ZM34.6323 19.6432C34.6323 19.1316 34.2719 18.7052 33.7863 18.608C33.7835 18.6076 33.7807 18.6068 33.7775 18.606C33.7719 18.6052 33.7663 18.6032 33.7607 18.6024L33.7411 18.6004C33.6895 18.592 33.6371 18.5868 33.5835 18.586L33.4439 18.5728C30.1075 18.334 26.6751 18.24 23.4551 18.1756L23.4487 18.152C21.8815 12.2736 19.9239 6.2636 17.2843 6.2636C14.8247 6.2748 12.6075 10.2236 10.6927 18.0028C9.3399 17.9856 8.1067 17.9668 6.9439 17.9468C6.8779 17.9456 6.8187 17.9452 6.7659 17.9452C6.5179 17.9452 6.3967 17.9556 6.3367 17.9636C5.6819 18.0796 5.20671 18.6508 5.20671 19.3224C5.20671 20.0072 5.7179 20.5944 6.3839 20.6904L6.3975 20.7044H10.0655C9.7251 22.2608 9.4267 23.8 9.1775 25.2828L9.0683 25.9356L9.0671 25.9668C9.0695 26.4704 9.4811 26.88 9.9843 26.88C10.3035 26.88 10.5927 26.7136 10.7579 26.4544L10.7839 26.4752L12.5871 20.7044H21.2727C21.9363 23.2116 22.6247 25.8004 23.5343 28.23C24.0207 29.5292 25.1595 32.572 27.0627 32.5872H27.0843C30.0299 32.5872 31.1779 27.8292 31.9383 24.6796C32.1015 24.002 32.2427 23.4168 32.3759 22.9868L32.4291 22.8092H32.4287C32.4415 22.7676 32.4483 22.7236 32.4483 22.6776C32.4483 22.4256 32.2439 22.2212 31.9919 22.2212C31.7963 22.2212 31.6299 22.344 31.5647 22.5168L31.5639 22.5164L31.4999 22.6932C31.2499 23.3852 31.0187 24.0396 30.8139 24.6196L30.7983 24.6632C29.5235 28.274 28.9415 29.922 27.8015 29.9224L27.7735 29.922L27.7575 29.9244L27.7291 29.9236C26.2699 29.9236 24.8959 23.9916 24.3787 21.7588C24.2891 21.372 24.2071 21.0168 24.1315 20.7044H33.5671C33.7443 20.7044 33.9111 20.66 34.0575 20.5832C34.0587 20.5828 34.0595 20.5824 34.0603 20.582C34.0751 20.5744 34.0891 20.5656 34.1035 20.5572C34.1195 20.548 34.1351 20.5388 34.1503 20.5288C34.1579 20.524 34.1651 20.5188 34.1723 20.5136C34.1951 20.498 34.2171 20.4816 34.2387 20.464C34.2403 20.4628 34.2415 20.4616 34.2431 20.4604C34.4807 20.2656 34.6323 19.9704 34.6323 19.6432ZM50.8938 25.0828L49.3147 28.9856H44.7271L53.4558 8.6084H57.5074L66.2062 28.9856H61.6482L60.0694 25.0828H50.8938ZM55.4518 13.762L52.4726 21.18H58.4906L55.4518 13.762ZM92.065 21.1504V28.9856H87.9242V21.508C87.9242 19.2436 86.8218 18.0224 84.8854 18.0224C84.0214 18.0224 83.0682 18.4096 82.2042 19.6012C82.2638 20.1076 82.3234 20.614 82.3234 21.1504V28.9856H78.1822V21.508C78.1822 19.2436 77.0802 18.0224 75.1138 18.0224C74.3094 18.0224 73.4158 18.4988 72.5818 19.6312V28.9856H68.4406V14.7156H72.5818V15.5796C73.4754 14.7452 74.4286 14.2688 76.097 14.2688C77.9142 14.2688 79.523 14.9836 80.655 16.2944C82.1746 14.8944 83.6042 14.2688 85.8386 14.2688C89.3242 14.2688 92.065 16.9796 92.065 21.1504ZM110.267 21.8652C110.267 26.0064 107.11 29.2832 103.177 29.2832C101.569 29.2832 100.228 28.8664 99.1254 28.1512V35.8672H94.9846V14.7156H99.1254V15.5496C100.228 14.8344 101.569 14.4176 103.177 14.4176C107.11 14.4176 110.267 17.6648 110.267 21.8652ZM106.186 21.8652C106.186 19.75 104.637 17.9032 102.492 17.9032C101.271 17.9032 100.049 18.32 99.1254 19.5716V24.1296C100.049 25.3508 101.271 25.768 102.492 25.768C104.637 25.768 106.186 23.9508 106.186 21.8652ZM116.732 28.9856H112.591V7.8336H116.732V28.9856ZM125.043 28.9856H120.903V14.7156H125.043V28.9856ZM120.456 9.6808C120.456 8.2804 121.558 7.238 122.958 7.238C124.329 7.238 125.431 8.2804 125.431 9.6808C125.431 11.0512 124.329 12.064 122.958 12.064C121.558 12.064 120.456 11.0512 120.456 9.6808ZM140.088 28.7768C138.36 29.3132 137.585 29.4324 136.245 29.4324C132.789 29.4324 130.525 26.9896 130.525 23.2952V18.2012H127.516V14.7156H130.525V9.6212H134.636V14.7156H139.79V18.2012H134.636V23.2656C134.636 24.8744 135.619 25.6192 137.139 25.6192C137.913 25.6192 138.747 25.4404 139.552 25.232L140.088 28.7768ZM156.711 28.9856H152.57V27.9724C151.409 28.896 150.097 29.4324 148.489 29.4324C144.735 29.4324 142.233 26.7212 142.233 22.5804V14.7156H146.374V22.1932C146.374 24.4572 147.506 25.6788 149.442 25.6788C150.485 25.6788 151.617 25.0532 152.57 23.8912V14.7156H156.711V28.9856ZM174.288 28.9856H170.147V28.1512C169.045 28.8664 167.704 29.2832 166.096 29.2832C162.163 29.2832 158.975 26.036 158.975 21.8356C158.975 17.6944 162.163 14.4176 166.096 14.4176C167.704 14.4176 169.045 14.8344 170.147 15.5496V7.8336H174.288V28.9856ZM170.147 24.1296V19.5716C169.224 18.35 168.002 17.9328 166.781 17.9328C164.606 17.9328 163.087 19.75 163.087 21.8356C163.087 23.9508 164.606 25.798 166.781 25.798C168.002 25.798 169.224 25.3808 170.147 24.1296ZM191.09 22.908H180.574C180.902 24.5764 182.004 25.8872 184.268 25.8872C185.43 25.8872 186.234 25.5296 186.681 24.8148H191.001C190.226 27.5556 187.545 29.4324 184.179 29.4324C179.591 29.4324 176.492 26.1256 176.492 21.8652C176.492 17.4564 179.561 14.2684 184.06 14.2684C188.141 14.2684 191.18 17.1584 191.18 21.5672C191.18 22.1632 191.15 22.4908 191.09 22.908ZM180.604 20.4652H187.068C186.83 18.6776 185.758 17.6944 184.089 17.6944C182.093 17.6944 180.991 18.8564 180.604 20.4652Z" fill="white"/>
</g>
<defs>
<clipPath id="clip0_303_818">
<rect width="200" height="40" fill="white"/>
</clipPath>
</defs>
</svg>
