<svg width="16" height="17" viewBox="0 0 16 17" fill="none" xmlns="http://www.w3.org/2000/svg">
<g clip-path="url(#clip0_303_730)">
<path d="M15.9914 8.49999C15.9908 8.27299 15.9421 8.04869 15.8486 7.84186C15.7551 7.63503 15.6188 7.45035 15.4487 7.29999L7.99606 0.740659C7.80354 0.583065 7.55737 0.506363 7.30941 0.526719C7.06145 0.547075 6.83108 0.662898 6.66685 0.849779C6.50261 1.03666 6.41735 1.28 6.42901 1.52852C6.44068 1.77704 6.54837 2.01132 6.72939 2.18199L12.4874 7.24866C12.5126 7.27106 12.5305 7.30061 12.5386 7.33338C12.5467 7.36616 12.5446 7.40062 12.5327 7.4322C12.5208 7.46378 12.4995 7.491 12.4718 7.51025C12.4441 7.52949 12.4111 7.53987 12.3774 7.53999H0.968057C0.713449 7.53999 0.469269 7.64113 0.289234 7.82117C0.109199 8.0012 0.00805664 8.24538 0.00805664 8.49999C0.00805664 8.7546 0.109199 8.99878 0.289234 9.17881C0.469269 9.35885 0.713449 9.45999 0.968057 9.45999H12.3754C12.4091 9.46032 12.442 9.47084 12.4697 9.49017C12.4973 9.5095 12.5185 9.53675 12.5304 9.56833C12.5423 9.59991 12.5443 9.63435 12.5363 9.66712C12.5283 9.6999 12.5105 9.72948 12.4854 9.75199L6.72739 14.8187C6.62669 14.9 6.54348 15.0009 6.48276 15.1152C6.42204 15.2295 6.38507 15.3549 6.37407 15.4839C6.36307 15.6129 6.37827 15.7427 6.41875 15.8657C6.45924 15.9887 6.52417 16.1021 6.60964 16.1994C6.69511 16.2966 6.79936 16.3755 6.91612 16.4314C7.03288 16.4873 7.15974 16.519 7.28906 16.5246C7.41838 16.5302 7.54751 16.5096 7.66866 16.464C7.78981 16.4184 7.9005 16.3488 7.99406 16.2593L15.4481 9.69999C15.6183 9.54975 15.7548 9.36511 15.8484 9.15826C15.9421 8.95141 15.9908 8.72705 15.9914 8.49999V8.49999Z" fill="#0E086A"/>
</g>
<defs>
<clipPath id="clip0_303_730">
<rect width="16" height="16" fill="white" transform="translate(0 0.5)"/>
</clipPath>
</defs>
</svg>
