<svg width="188" height="24" viewBox="0 0 188 24" fill="none" xmlns="http://www.w3.org/2000/svg">
<g clip-path="url(#clip0_303_803)">
<path d="M6.82035 10.9793C6.69667 10.8176 6.50428 10.7224 6.30061 10.7224C6.04691 10.7224 5.81506 10.8701 5.70794 11.1001L0.0711774 22.3701C0.0243131 22.4635 0 22.5668 0 22.6714C0 23.041 0.30409 23.3451 0.673719 23.3451H8.52262C8.77914 23.3511 9.01593 23.2045 9.12516 22.9727C10.8183 19.4741 9.79218 14.1544 6.82035 10.9793V10.9793Z" fill="white"/>
<path d="M10.9546 0.728682C8.10042 5.12019 7.77026 10.7076 10.0867 15.4046L13.8707 22.9727C13.9845 23.2007 14.2185 23.3451 14.4733 23.3451H22.3208C22.6904 23.3451 22.9945 23.041 22.9945 22.6714C22.9945 22.5668 22.9702 22.4635 22.9233 22.3701C22.8764 22.2768 12.3658 1.25265 12.1005 0.724454C11.994 0.506341 11.7713 0.367157 11.5286 0.367157C11.284 0.367157 11.0603 0.508102 10.9546 0.728682V0.728682Z" fill="white"/>
<path d="M103.001 9.76503C103.001 12.5557 104.296 14.7714 109.36 15.7496C112.381 16.3838 113.014 16.8715 113.014 17.8786C113.014 18.8567 112.38 19.4899 110.252 19.4899C107.68 19.4438 105.159 18.7616 102.915 17.5047V22.0502C104.44 22.7983 106.454 23.6326 110.194 23.6326C115.488 23.6326 117.589 21.2718 117.589 17.7633L103.001 9.76503ZM117.589 17.7633C117.589 14.4546 115.834 12.9007 110.885 11.8366C108.152 11.2323 107.49 10.6283 107.49 9.76503C107.49 8.6727 108.468 8.21146 110.281 8.21146C112.467 8.21146 114.625 8.8732 116.668 9.79392V5.44928C114.709 4.5578 112.576 4.11559 110.424 4.1547C105.533 4.1547 103.001 6.28368 103.001 9.76503" fill="white"/>
<path d="M171.014 4.44223V23.3451H175.042V8.93064L176.74 12.757L182.436 23.3451H187.5V4.44223H183.472V16.6414L181.947 13.1023L177.372 4.44223H171.014Z" fill="white"/>
<path fill-rule="evenodd" clip-rule="evenodd" d="M140.993 4.44223H145.395V23.3451H140.993V4.44223Z" fill="white"/>
<path d="M135.914 17.7633C135.914 14.4546 134.158 12.9007 129.21 11.8366C126.477 11.2323 125.815 10.6283 125.815 9.76503C125.815 8.6727 126.793 8.21146 128.606 8.21146C130.792 8.21146 132.95 8.8732 134.993 9.79392V5.44928C133.034 4.5578 130.901 4.11559 128.749 4.1547C123.858 4.1547 121.326 6.28368 121.326 9.76503C121.326 12.5557 122.621 14.7714 127.685 15.7496C130.706 16.3838 131.339 16.8715 131.339 17.8786C131.339 18.8567 130.705 19.4899 128.577 19.4899C126.005 19.4438 123.484 18.7616 121.24 17.5047V22.0502C122.765 22.7983 124.779 23.6326 128.519 23.6326C133.813 23.6326 135.914 21.2718 135.914 17.7633" fill="white"/>
<path d="M68.8049 4.44223V23.3451H77.8529L79.2775 19.2595H73.2355V4.44223H68.8049Z" fill="white"/>
<path d="M50.9288 4.44223V8.52753H55.82V23.3451H60.2506V8.52753H65.4871V4.44223H50.9288Z" fill="white"/>
<path d="M44.5042 4.44223H38.6976L32.106 23.3451H37.1398L38.0743 20.1615C40.3756 20.8374 42.8231 20.8374 45.1244 20.1615L46.0588 23.3451H51.0938L44.5042 4.44223ZM41.6007 16.7528C40.7808 16.7528 39.9651 16.6354 39.1782 16.4043L41.6007 8.15508L44.0232 16.4071C43.2364 16.6372 42.4207 16.7535 41.6007 16.7528V16.7528Z" fill="white"/>
<path d="M93.4514 4.44223H87.6451L81.0535 23.3451H86.0884L87.0229 20.1615C89.3241 20.8374 91.7717 20.8374 94.073 20.1615L95.0074 23.3451H100.042L93.4514 4.44223ZM90.5483 16.7528C89.7283 16.7528 88.9126 16.6354 88.1258 16.4043L90.5483 8.15508L92.9707 16.4071C92.1839 16.6372 91.3682 16.7535 90.5483 16.7528V16.7528Z" fill="white"/>
<path d="M161.258 4.44223H155.452L148.86 23.3451H153.895L154.829 20.1615C157.131 20.8374 159.578 20.8374 161.879 20.1615L162.814 23.3451H167.849L161.258 4.44223ZM158.353 16.7528C157.533 16.7528 156.717 16.6354 155.93 16.4043L158.353 8.15508L160.775 16.4071C159.989 16.6372 159.173 16.7535 158.353 16.7528V16.7528Z" fill="white"/>
</g>
<defs>
<clipPath id="clip0_303_803">
<rect width="187.5" height="24" fill="white"/>
</clipPath>
</defs>
</svg>
