<svg width="98" height="30" viewBox="0 0 98 30" fill="none" xmlns="http://www.w3.org/2000/svg">
<g clip-path="url(#clip0_303_821)">
<path d="M63.6251 22.3175C62.5363 22.3175 62.1789 20.9484 62.163 19.6424C62.1322 17.3715 63.6096 15.7384 63.6251 15.7071C63.6564 15.7384 65.1184 17.3715 65.0871 19.6424C65.0871 20.9484 64.7138 22.3175 63.6251 22.3175ZM69.7686 8.72429C67.9332 8.72429 65.7404 9.37752 63.6405 11.648C61.5411 9.37752 59.3328 8.72429 57.5128 8.72429C57.5128 8.72429 50.4991 8.19535 50.4991 16.3916V29.6577H55.5848V17.1383C55.5848 13.4679 58.0417 13.3899 58.5239 13.4988C58.5239 13.4988 59.4103 13.5455 60.2192 14.3852C60.2192 14.3852 58.6015 16.5005 58.4772 19.1597C58.4772 19.1597 58.1198 26.0495 63.6405 26.0495C69.1621 26.0495 68.8042 19.1597 68.8042 19.1597C68.6799 16.5005 67.0623 14.3852 67.0623 14.3852C67.8711 13.5455 68.7575 13.4988 68.7575 13.4988C69.2243 13.3899 71.6971 13.4679 71.6971 17.1383V29.6577H76.7828V16.3916C76.7669 8.19535 69.7686 8.72429 69.7686 8.72429Z" fill="white"/>
<path d="M42.5514 9.06635H47.6371V29.6736H42.5514V9.06635Z" fill="white"/>
<path d="M45.1022 0.139252C43.407 0.139252 42.0071 1.50787 42.0071 3.18768C42.0071 4.88291 43.3916 6.28283 45.1022 6.28283C46.782 6.28283 48.1507 4.89834 48.1507 3.18768C48.1507 1.53917 46.7662 0.139252 45.1022 0.139252Z" fill="white"/>
<path d="M26.4546 10.4504V-0.000457764H21.4156V29.6736H26.4546V14.8207C34.8065 10.7616 34.4953 17.185 34.4953 17.185V29.6736H39.5497V17.185C39.5343 5.11609 28.99 9.09764 26.4546 10.4504Z" fill="white"/>
<path d="M84.3879 16.0342C85.243 13.8721 87.0162 12.7367 89.5357 12.7367C91.6043 12.7367 92.8014 13.6077 92.8014 14.9922C92.8014 16.936 90.6086 17.107 88.5559 17.107C86.534 17.107 85.2897 16.8893 84.7299 16.7491L84.1856 16.6248L84.3879 16.0342ZM83.7655 20.3732C86.4714 21.3217 89.9086 21.2442 89.9086 21.2442C98.0586 21.1974 97.825 15.2721 97.825 15.2721C97.6227 8.59999 89.7843 8.72428 89.7843 8.72428C83.2991 8.72428 78.7578 13.1722 78.7578 19.5335C78.7578 25.8944 83.2057 29.9998 90.0801 29.9998C93.0038 29.9998 95.7877 29.1914 97.732 27.7761V22.8768C95.6943 24.6346 93.2528 25.5678 90.6712 25.5678C90.6866 25.5678 83.6258 25.9252 83.7655 20.3732Z" fill="white"/>
<path d="M10.9798 29.9998C14.5571 29.9998 17.0921 28.647 18.6008 27.5116V22.5815C16.3767 24.3389 13.7637 25.3496 11.4466 25.3496C7.74491 25.3496 5.14785 22.7992 5.14785 19.1289C5.14785 15.645 7.51174 13.2189 10.8868 13.2189C11.9909 13.2189 12.9395 13.4988 13.9506 13.7787C14.9926 14.074 16.0814 14.4006 17.3719 14.4006C17.7766 14.4006 18.1808 14.3698 18.585 14.3076V9.61071C18.2429 9.64155 17.9163 9.67285 17.5743 9.67285C16.408 9.67285 15.3501 9.45511 14.2459 9.22194C13.0797 8.9729 11.8821 8.7243 10.4667 8.7243C7.65191 8.7243 5.03898 9.71958 3.126 11.5545C1.08872 13.4988 0 16.2052 0 19.362C0 25.6299 4.51004 29.9998 10.9798 29.9998Z" fill="white"/>
</g>
<defs>
<clipPath id="clip0_303_821">
<rect width="97.826" height="30" fill="white"/>
</clipPath>
</defs>
</svg>
