<svg width="140" height="32" viewBox="0 0 140 32" fill="none" xmlns="http://www.w3.org/2000/svg">
<path fill-rule="evenodd" clip-rule="evenodd" d="M11.8171 27.3029C12.88 27.3029 13.8743 27.1086 14.8114 26.7314C14.8114 26.7657 16.72 29.7257 16.7543 29.7371C15.065 30.6421 13.1733 31.1023 11.2571 31.0743C5.39425 31.0857 1.14282 27.2114 1.14282 21.0514C1.14282 14.8457 5.59997 10.9943 11.2571 10.9943C13.2571 10.9943 14.8457 11.4286 16.4343 12.2743L14.6057 15.36C13.6457 14.9829 12.6628 14.8114 11.6343 14.8114C8.17139 14.8114 5.48568 17.0171 5.48568 21.0514C5.48568 24.8686 8.07997 27.3029 11.8171 27.3029ZM26.5943 10.9943C32.3543 10.9943 36.5257 15.0743 36.5257 21.0514C36.5257 26.9943 32.3543 31.0743 26.5828 31.0743C20.8685 31.0743 16.6971 26.9943 16.6971 21.0514C16.6971 15.0743 20.8685 10.9943 26.5943 10.9943V10.9943ZM26.5943 14.6743C23.3828 14.6743 21.04 17.1543 21.04 21.0514C21.04 24.9143 23.3828 27.3943 26.5943 27.3943C29.8857 27.3943 32.1943 24.9143 32.1943 21.0514C32.1943 17.1543 29.8857 14.6743 26.5943 14.6743V14.6743ZM39.2571 30.64V11.4286H43.5543V30.6286H39.2571V30.64ZM38.6857 5.52C38.7302 4.8365 39.0332 4.19555 39.533 3.72724C40.0329 3.25893 40.6922 2.99833 41.3771 2.99833C42.0621 2.99833 42.7214 3.25893 43.2212 3.72724C43.721 4.19555 44.024 4.8365 44.0685 5.52C44.0687 6.23765 43.7876 6.92679 43.2855 7.43956C42.7834 7.95234 42.1003 8.2479 41.3828 8.26285C40.6653 8.2479 39.9823 7.95234 39.4802 7.43956C38.9781 6.92679 38.697 6.23765 38.6971 5.52H38.6857ZM47.3028 12.64C50.1176 11.582 53.0959 11.025 56.1028 10.9943C61.0171 10.9943 64.1257 12.8571 64.1257 18.2743V30.64H59.8857V18.6743C59.8857 15.8971 58.16 14.9029 55.7714 14.9029C54.2514 14.9029 52.7314 15.1086 51.6 15.4629V30.6286H47.3143V12.64H47.3028ZM67.7257 1.14285H72.0228V11.9429C72.9371 11.4629 74.7085 10.9943 76.4 10.9943C81.9543 10.9943 86.1143 14.5371 86.1143 20.7086C86.1143 26.9143 82 31.0743 74.8914 31.0743C72.1143 31.0743 69.68 30.5029 67.7257 29.8171V1.14285V1.14285ZM72.0228 26.9943C72.8457 27.2571 73.9314 27.3943 75.0171 27.3943C78.96 27.3943 81.7828 25.2229 81.7828 20.8C81.7828 17.0629 79.1314 14.8571 75.8857 14.8571C74.1943 14.8571 72.8914 15.2914 72.0228 15.7714V26.9943V26.9943ZM98.5371 17.76C98.5371 15.68 96.96 14.72 94.8343 14.72C92.6285 14.72 90.8914 15.3714 89.2914 16.2857V12.5486C91.2054 11.5084 93.3531 10.9734 95.5314 10.9943C99.7371 10.9943 102.731 12.7314 102.731 17.5429V30.2514C100.903 30.7314 98.3085 31.0286 96.1371 31.0286C91.1543 31.0286 87.5085 29.52 87.5085 25.1771C87.5085 21.2686 90.8457 19.36 96.4 19.36H98.5257V17.76H98.5371ZM98.5371 22.2171H96.7085C93.7143 22.2171 91.76 23.0971 91.76 25.0514C91.76 27.04 93.5885 27.8171 96.1828 27.8171C96.8343 27.8171 97.7485 27.7371 98.5257 27.6114V22.2286L98.5371 22.2171ZM105.851 25.44C107.526 26.7669 109.579 27.5273 111.714 27.6114C113.623 27.6114 114.88 26.96 114.88 25.44C114.88 23.8743 113.749 23.3143 111.28 22.6629C107.28 21.7486 105.6 20.1486 105.6 16.8C105.6 12.9029 108.549 10.9943 112.457 10.9943C114.629 10.9943 116.354 11.4629 117.966 12.4686V16.4114C116.434 15.1891 114.542 14.5061 112.583 14.4686C110.72 14.4686 109.726 15.3829 109.726 16.64C109.726 17.8971 110.537 18.5371 112.754 19.1543C117.143 20.1029 119.04 21.7486 119.04 25.2114C119.04 29.2571 115.966 31.0743 111.806 31.0743C109.719 31.1159 107.662 30.5779 105.863 29.52V25.44H105.851ZM124.926 22.0114V22.0914C125.189 25.52 128.126 27.3943 131.131 27.3943C133.771 27.3943 135.68 26.7771 137.589 25.52V29.2914C135.851 30.5143 133.291 31.0743 130.823 31.0743C124.834 31.0743 120.766 27.2571 120.766 21.1886C120.766 15.0743 124.754 10.9943 130.046 10.9943C135.646 10.9943 138.286 14.5943 138.286 19.84V22.0114H124.914H124.926ZM134.251 19.2343C134.16 16.24 132.686 14.5943 129.909 14.5943C127.44 14.5943 125.623 16.3314 125.051 19.2343H134.251Z" fill="white"/>
</svg>
