<svg width="42" height="42" viewBox="0 0 42 42" fill="none" xmlns="http://www.w3.org/2000/svg">
<path d="M13.153 40.6647C19.6768 40.6647 24.9655 35.3761 24.9655 28.8522C24.9655 22.3284 19.6768 17.0397 13.153 17.0397C6.62909 17.0397 1.34045 22.3284 1.34045 28.8522C1.34045 35.3761 6.62909 40.6647 13.153 40.6647Z" stroke="#FF8E8E" stroke-width="1.5" stroke-linecap="round" stroke-linejoin="round"/>
<path d="M2.01245 32.7897H24.2917" stroke="#FF8E8E" stroke-width="1.5" stroke-linecap="round" stroke-linejoin="round"/>
<path d="M2.01245 24.9147H24.2917" stroke="#FF8E8E" stroke-width="1.5" stroke-linecap="round" stroke-linejoin="round"/>
<path d="M10.6032 17.3145C8.48581 24.9648 8.79769 33.084 11.4957 40.5493" stroke="#FF8E8E" stroke-width="1.5" stroke-linecap="round" stroke-linejoin="round"/>
<path d="M15.7011 17.3145C16.6256 20.6442 17.093 24.0841 17.0906 27.5398C17.097 31.9758 16.3271 36.3787 14.8156 40.5493" stroke="#FF8E8E" stroke-width="1.5" stroke-linecap="round" stroke-linejoin="round"/>
<path d="M21.2992 10.4772C23.9864 10.5352 26.5474 11.6286 28.448 13.5292C30.3486 15.4298 31.4419 17.9908 31.4999 20.678" stroke="#FF8E8E" stroke-width="1.5" stroke-linecap="round" stroke-linejoin="round"/>
<path d="M24.36 1.3125C28.6205 1.49118 32.6596 3.25886 35.6816 6.26731C38.7037 9.27577 40.4896 13.3069 40.6875 17.5665" stroke="#FF8E8E" stroke-width="1.5" stroke-linecap="round" stroke-linejoin="round"/>
</svg>
