<svg width="42" height="42" viewBox="0 0 42 42" fill="none" xmlns="http://www.w3.org/2000/svg">
<path d="M31.5 19.6875C36.5741 19.6875 40.6875 15.5741 40.6875 10.5C40.6875 5.42588 36.5741 1.3125 31.5 1.3125C26.4259 1.3125 22.3125 5.42588 22.3125 10.5C22.3125 15.5741 26.4259 19.6875 31.5 19.6875Z" stroke="#FF8E8E" stroke-width="1.5" stroke-linecap="round" stroke-linejoin="round"/>
<path d="M23.1472 2.14728L39.8527 18.8528" stroke="#FF8E8E" stroke-width="1.5" stroke-linecap="round" stroke-linejoin="round"/>
<path d="M31.3968 19.6875L12.7943 35.1243C12.2905 35.53 11.6547 35.7355 11.0088 35.7012C10.3629 35.667 9.75234 35.3955 9.2943 34.9388L7.0613 32.7128C6.60459 32.2547 6.33308 31.6442 6.29885 30.9983C6.26461 30.3523 6.47007 29.7165 6.8758 29.2128L22.3125 10.6033" stroke="#FF8E8E" stroke-width="1.5" stroke-linecap="round" stroke-linejoin="round"/>
<path d="M22.0499 20.244C22.1418 20.3358 22.2044 20.4527 22.2298 20.58C22.2552 20.7073 22.2422 20.8393 22.1926 20.9593C22.1429 21.0793 22.0588 21.1818 21.9509 21.2539C21.8429 21.3261 21.716 21.3646 21.5862 21.3646C21.4564 21.3646 21.3294 21.3261 21.2215 21.2539C21.1136 21.1818 21.0295 21.0793 20.9798 20.9593C20.9302 20.8393 20.9172 20.7073 20.9426 20.58C20.968 20.4527 21.0306 20.3358 21.1224 20.244C21.2459 20.122 21.4126 20.0535 21.5862 20.0535C21.7598 20.0535 21.9264 20.122 22.0499 20.244" stroke="#FF8E8E" stroke-width="1.5" stroke-linecap="round" stroke-linejoin="round"/>
<path d="M8.17425 33.8257L1.3125 40.6875" stroke="#FF8E8E" stroke-width="1.5" stroke-linecap="round" stroke-linejoin="round"/>
</svg>
