<svg width="150" height="30" viewBox="0 0 150 30" fill="none" xmlns="http://www.w3.org/2000/svg">
<path d="M10.2223 28.9138H4.63226V14.9785H0.824219V10.4415H4.63211V7.21307C4.63211 3.38739 6.31635 0.643631 11.8913 0.643631C13.0704 0.643631 14.9215 0.88129 14.9215 0.88129V5.09417H12.9772C10.9961 5.09417 10.2226 5.69677 10.2226 7.36276V10.4415H14.8473L14.4355 14.9785H10.2224L10.2223 28.9138ZM23.0488 10.0789C22.9673 10.0789 22.8835 10.0819 22.8006 10.084C17.6172 10.084 15.2456 13.9829 15.2456 19.5176C15.2456 26.4898 18.3219 29.2803 22.8411 29.2803C25.4267 29.2803 27.1255 28.192 28.158 26.1611V28.9157H33.4749V10.4434H28.158V13.2842C27.3149 11.4565 25.5687 10.1006 23.0488 10.0789V10.0789ZM24.4007 14.4439C26.5778 14.4439 27.8845 15.9624 27.8845 18.5453L27.8895 21.1835C27.8895 22.9244 26.8102 24.9611 24.4007 24.9611C20.6964 24.9611 20.7953 20.9612 20.7953 19.629C20.7953 15.1478 22.769 14.4439 24.4007 14.4439V14.4439ZM35.6222 19.6805C35.6222 17.4358 35.5148 10.0909 45.084 10.0909C48.9253 10.0909 50.5293 11.3123 50.5293 11.3123L49.2401 15.3108C49.2401 15.3108 47.6382 14.4287 45.5509 14.4287C42.8775 14.4287 41.1716 15.9786 41.1716 18.7054L41.1745 20.6607C41.1745 23.2809 42.8205 25.0299 45.5564 25.0299C47.458 25.0299 49.2106 24.1395 49.2106 24.1395L50.4965 28.0545C50.4965 28.0545 49.0299 29.2836 45.1109 29.2836C35.9994 29.2836 35.6223 22.6938 35.6223 19.6805H35.6222ZM81.7044 10.084C86.8879 10.084 89.2968 13.9829 89.2968 19.5176C89.2968 26.4898 86.2205 29.2803 81.7012 29.2803C79.1156 29.2803 77.2043 28.1922 76.1717 26.1611V28.9157L70.9217 28.9136V1.20529L76.4959 0.719142V13.0339C77.3004 10.8794 79.9443 10.084 81.7045 10.084H81.7044ZM80.1416 14.4439C77.9646 14.4439 76.4959 15.9624 76.4959 18.5453L76.4907 21.1835C76.4874 22.9244 77.5078 24.9611 80.1416 24.9611C83.846 24.9611 83.747 20.9612 83.747 19.629C83.747 15.1478 81.7735 14.4439 80.1416 14.4439ZM60.2009 10.0992C54.3218 10.0992 51.2179 13.3047 51.2179 19.0011V20.0594C51.2179 27.4528 55.5767 29.3563 60.7731 29.3563C65.8241 29.3563 68.1103 27.9435 68.1103 27.9435L67.0672 24.1813C67.0672 24.1813 64.3779 25.3256 61.4414 25.3256C58.3973 25.3256 57.0881 24.5497 56.7525 21.6242H68.5559V18.606C68.5559 12.4269 65.0725 10.0991 60.2008 10.0991L60.2009 10.0992ZM60.3426 13.8665C62.3777 13.8665 63.6964 15.1144 63.624 18.0086H56.7627C56.8817 14.9625 58.3038 13.8666 60.3426 13.8666V13.8665ZM100.411 10.0739C94.374 10.0739 91.1956 13.4762 91.1956 19.5733C91.1956 27.9388 96.6745 29.2854 100.422 29.2854C105.907 29.2854 109.556 26.3321 109.556 19.6492C109.556 12.6935 105.453 10.0739 100.411 10.0739V10.0739ZM100.336 14.459C102.99 14.459 104.042 16.4459 104.042 18.7075V20.6519C104.042 23.3917 102.57 24.9764 100.325 24.9764C98.226 24.9764 96.7505 23.494 96.7505 20.6519V18.7075C96.7505 15.6764 98.5062 14.459 100.336 14.459V14.459ZM120.661 10.0739C114.624 10.0739 111.445 13.4762 111.445 19.5733C111.445 27.9388 116.924 29.2854 120.671 29.2854C126.157 29.2854 129.806 26.3321 129.806 19.6492C129.806 12.6935 125.703 10.0739 120.661 10.0739V10.0739ZM120.585 14.459C123.24 14.459 124.292 16.4459 124.292 18.7075V20.6519C124.292 23.3917 122.82 24.9764 120.575 24.9764C118.476 24.9764 117 23.494 117 20.6519V18.7075C117 15.6764 118.756 14.459 120.585 14.459V14.459ZM131.913 28.9138V1.20529L137.503 0.71929V19.2912L143.049 10.4416H148.953L143.167 19.6072L149.176 28.9138H143.255L137.503 19.8771V28.9138H131.913Z" fill="white"/>
</svg>
