<svg width="131" height="54" viewBox="0 0 131 54" fill="none" xmlns="http://www.w3.org/2000/svg">
<path fill-rule="evenodd" clip-rule="evenodd" d="M120.471 25.1451H115.427V5.26641H120.175V7.49189C120.768 6.15655 122.252 4.96941 124.181 4.8213C127.444 4.67319 129.67 6.60166 129.67 10.7556V25.1451H124.477V10.1625C124.477 8.38212 124.477 6.89867 123.29 6.60166C122.845 6.45365 122.104 6.60166 121.51 7.0459C120.768 7.78802 120.471 8.67824 120.471 10.1625C120.471 10.4586 120.471 25.1451 120.471 25.1451V25.1451Z" fill="white"/>
<path fill-rule="evenodd" clip-rule="evenodd" d="M34.7233 6.60165C33.537 5.56341 32.0528 4.82129 30.2724 4.82129C28.4929 4.82129 27.1576 5.56341 25.8223 6.60165C23.7449 8.3821 22.4104 11.6458 22.4104 15.2058C22.4104 18.9146 23.7449 22.0294 25.8223 23.8107C27.1576 24.849 28.4929 25.5902 30.2724 25.5902C32.0528 25.5902 33.537 24.849 34.7233 23.8107C36.9489 22.0294 38.1353 18.9146 38.1353 15.2058C38.1353 11.6458 36.9489 8.3821 34.7233 6.60165V6.60165ZM32.7949 15.2058C32.7949 18.9146 32.7949 21.8822 32.2009 23.3656C31.7566 24.1069 31.3107 24.552 30.2724 24.552C29.383 24.552 28.7899 24.1069 28.4929 23.3656C27.7508 21.8822 27.7508 18.9146 27.7508 15.2058C27.7508 11.6458 27.7508 8.53012 28.4929 7.04588C28.7899 6.30465 29.383 5.85953 30.2724 5.85953C31.3107 5.85953 31.7566 6.30465 32.2009 7.04588C32.9439 8.53012 32.7949 11.6458 32.7949 15.2058Z" fill="white"/>
<path fill-rule="evenodd" clip-rule="evenodd" d="M86.4981 32.7118V38.0521H85.4605C84.8672 35.8275 83.9768 33.899 81.6036 33.7501C80.1199 33.602 78.7842 34.4922 78.6353 35.8275C78.4872 37.162 78.9324 38.3491 81.6036 39.8325C85.0153 41.761 87.6856 42.6512 87.6856 46.6571C87.6856 50.9591 83.9768 53.0365 80.8613 53.0365C79.5257 53.0365 74.9264 53.0365 74.9264 53.0365V45.618H75.9658C76.7081 49.4757 77.8947 51.8493 80.7132 51.9974C82.4931 51.9974 83.8278 50.9591 83.8278 49.0307C83.8278 47.1022 82.6412 45.915 79.8228 44.2826C76.7081 42.3541 74.7783 41.1678 74.7783 38.4972C74.7783 34.9365 77.3014 32.7118 81.3065 32.7118C82.6412 32.7118 86.4981 32.7118 86.4981 32.7118Z" fill="white"/>
<path fill-rule="evenodd" clip-rule="evenodd" d="M93.0263 25.1451V10.7556C93.0263 6.60167 90.8003 4.6732 87.5366 4.8213C85.3115 4.96941 83.9768 6.45365 83.3826 7.64C82.6412 5.56342 81.0094 4.6732 78.6353 4.8213C76.7081 4.96941 75.2235 6.15655 74.6302 7.49189V5.26642H70.0319V25.1451H75.0754C75.0754 25.1451 75.0754 10.6076 75.0754 10.1625C75.0754 8.67824 75.2235 7.78802 76.1139 7.0459C76.7081 6.60167 77.3014 6.45365 77.7457 6.60167C78.9324 6.89867 78.9324 8.38212 78.9324 10.1625V25.1451H83.9768V10.0144C83.9768 8.67824 84.273 7.78802 85.0153 7.0459C85.6086 6.60167 86.2019 6.45365 86.6471 6.60167C87.8337 6.89867 87.9818 8.38212 87.9818 10.1625V25.1451H93.0263V25.1451Z" fill="white"/>
<path fill-rule="evenodd" clip-rule="evenodd" d="M41.548 1.11246H46.7402V25.1451H41.548V1.11246Z" fill="white"/>
<path fill-rule="evenodd" clip-rule="evenodd" d="M65.1364 25.1451V1.11246H59.9434V6.74976C59.4991 5.71152 58.4599 4.9694 56.9766 4.9694C53.2677 4.9694 50.3001 8.82634 50.152 14.7606C50.004 18.7666 51.3393 25.4421 56.5315 25.4421C58.608 25.4421 59.7953 24.2558 60.2404 23.2167V25.1451H65.1364ZM59.0531 6.89866C60.0923 8.38211 60.0923 11.942 60.0923 14.7606C60.0923 17.7274 60.2404 21.5852 59.0531 23.2167C58.608 23.8107 58.1638 24.1069 57.4217 24.1069C56.3834 24.1069 55.7894 22.9205 55.4932 20.9921C55.3443 19.2116 55.3443 16.9861 55.3443 14.6125C55.3443 10.6076 55.6413 6.15654 57.5698 6.15654C58.3119 6.15654 58.608 6.45364 59.0531 6.89866V6.89866Z" fill="white"/>
<path fill-rule="evenodd" clip-rule="evenodd" d="M108.455 5.85953C109.79 6.60165 110.68 7.788 110.68 10.4586V25.1451H105.785V22.9205C105.191 24.552 103.56 25.5902 101.334 25.5902C99.5536 25.5902 96.4381 24.7009 96.4381 20.1018C96.4381 15.7989 99.2574 14.9096 102.373 13.5743C105.191 12.3879 105.488 12.2382 105.488 11.0518C105.488 10.0144 105.488 9.12334 105.488 7.788C105.488 6.45363 104.747 5.85953 103.262 5.85953C102.669 6.00764 101.631 6.30465 101.631 7.04588C101.482 7.93699 102.52 7.93699 102.669 9.27224C102.817 11.3488 101.185 12.0901 99.7026 11.942C98.6632 11.942 97.4766 11.3488 97.3285 9.71736C97.1804 7.04588 100.147 4.82129 104.301 4.82129C106.23 4.82129 107.417 5.2664 108.455 5.85953ZM105.488 13.2773L103.856 14.3155C102.224 15.3547 101.927 16.6891 101.779 18.1734C101.631 19.3597 101.631 20.3988 101.779 22.1784C101.927 23.8107 102.966 24.1069 103.856 23.8107C104.895 23.3656 105.488 21.4372 105.488 19.3597C105.488 19.3597 105.488 14.0194 105.488 13.2773Z" fill="white"/>
<path fill-rule="evenodd" clip-rule="evenodd" d="M35.0204 33.602C36.3556 34.4922 37.0969 35.5305 37.0969 38.2002V53.0365H32.3498V50.811C31.7566 52.2944 30.1251 53.3326 27.8988 53.3326C25.9703 53.3326 23.0027 52.5905 23.0027 47.9923C23.0027 43.6903 25.8223 42.8001 28.7899 41.4648C31.7566 40.1295 32.0527 39.9814 32.0527 38.9423C32.0527 37.9041 32.0527 37.0138 32.0527 35.6786C32.0527 34.1951 31.3107 33.602 29.8281 33.7501C29.2341 33.7501 28.1958 34.0471 28.1958 34.7884C28.0477 35.8275 29.086 35.8275 29.2341 37.162C29.383 39.0912 27.7507 39.8325 26.2673 39.8325C25.229 39.6844 24.0418 39.0912 23.8929 37.459C23.7448 34.9365 26.7124 32.7118 30.8663 32.7118C32.7948 32.7118 33.9812 33.0088 35.0204 33.602ZM32.0527 41.0197L30.4213 42.058C28.7899 43.0963 28.4929 44.4316 28.3439 45.915C28.1958 47.1022 28.1958 48.2885 28.3439 49.9208C28.3439 51.7012 29.383 51.9974 30.2723 51.5523C31.4596 51.1071 32.0527 49.3277 32.0527 47.1022C32.0527 47.1022 32.0527 41.761 32.0527 41.0197Z" fill="white"/>
<path fill-rule="evenodd" clip-rule="evenodd" d="M70.9215 38.6462C70.9215 34.4922 68.6963 32.4148 65.4325 32.7118C63.8011 32.8599 62.4658 33.602 61.7237 34.6403V28.8549H56.6795V42.5031C56.6795 47.5472 53.1196 52.2944 49.5589 52.1455C47.0363 52.1455 46.4432 50.217 46.147 48.1404C45.7019 45.1728 45.7019 41.761 45.998 38.0521C46.2951 35.6786 46.8883 33.7501 48.6686 33.7501C50.004 33.7501 50.152 34.6403 49.5589 35.2335C48.9648 35.9756 48.0755 36.7168 48.5205 38.3491C48.9648 40.1296 51.7835 40.4257 53.1196 39.0912C54.1579 37.9041 54.0098 35.9756 53.2677 34.7884C52.3775 33.305 50.8941 32.7118 48.6686 32.7118C45.8499 32.7118 40.5096 35.2335 40.5096 43.2453C40.5096 51.8493 45.998 53.3326 49.1138 53.3326C52.6745 53.3326 55.7894 50.217 56.6795 47.6953V53.0365H61.7237V38.0521C61.7237 36.5687 62.0207 35.6786 62.7619 34.9365C63.356 34.4922 64.0973 34.3433 64.5424 34.4922C65.7295 34.7884 65.7295 36.2717 65.7295 38.0521V53.0365H70.9215V38.6462V38.6462Z" fill="white"/>
<path fill-rule="evenodd" clip-rule="evenodd" d="M18.9978 0.667358V9.12336H17.9594C17.0693 4.96941 15.1408 1.85371 12.4703 1.7056C10.6898 1.5575 9.65244 2.59583 8.76133 4.08007C7.87199 5.85955 7.42608 9.56847 7.42608 14.0194C7.42608 18.1734 7.57498 21.2882 8.02009 23.5137C8.31622 24.552 9.05834 26.1843 10.9868 26.1843C12.0251 26.1843 12.7673 25.8873 13.2124 25.2941C13.9545 24.4039 14.1025 22.6235 14.1025 21.4372C14.1025 19.5087 14.1025 18.9146 14.1025 17.4313C14.1025 15.9479 13.6574 15.0577 12.9153 14.6126C12.3221 14.3155 11.4319 14.3156 10.9868 14.1675V13.1292H19.2948V34.3433H18.2557C17.8114 32.7118 17.5143 31.5246 16.7731 30.1893C16.031 28.8548 14.6957 27.3715 12.4703 27.3715C10.0967 27.2226 8.31622 28.7067 8.31622 30.9314C8.31622 33.899 10.0967 34.6403 13.3604 36.4198C16.4761 38.2002 20.4811 39.6844 20.4811 44.8766C20.4811 49.9208 16.1791 53.0365 11.2839 53.0365C10.2447 53.0365 3.42103 53.0365 3.42103 53.0365V42.8001H4.45928C5.79462 50.514 9.05834 51.8493 11.2839 51.8493C14.1025 51.8493 15.437 50.0689 15.437 47.5472C15.2889 44.2826 13.0643 43.0963 9.94856 41.4648C5.49849 38.9423 3.42103 37.7551 3.42103 33.602C3.56914 30.0412 6.38863 27.8157 9.50345 26.9264C2.97592 26.1843 1.04745 20.2508 1.19556 13.8704C1.19556 7.49189 4.90439 0.667358 12.1732 0.667358C15.437 0.667358 18.9978 0.667358 18.9978 0.667358Z" fill="white"/>
</svg>
