<svg width="137" height="40" viewBox="0 0 137 40" fill="none" xmlns="http://www.w3.org/2000/svg">
<g clip-path="url(#clip0_303_751)">
<path d="M14.8129 6.41806V17.3535H4.76645V6.41806H0V32.5226H4.76774V21.9419H14.8116V32.5226H19.5806V6.41806H14.8129ZM34.8413 24.0852C34.8413 25.1315 34.4256 26.1349 33.6858 26.8748C32.9459 27.6147 31.9424 28.0303 30.8961 28.0303C29.8498 28.0303 28.8463 27.6147 28.1065 26.8748C27.3666 26.1349 26.951 25.1315 26.951 24.0852V12.9032H22.4284V24.0852C22.4284 26.3287 23.3196 28.4804 24.9061 30.0668C26.4925 31.6533 28.6442 32.5445 30.8877 32.5445C33.1313 32.5445 35.283 31.6533 36.8694 30.0668C38.4558 28.4804 39.3471 26.3287 39.3471 24.0852V12.9032H34.8413V24.0852V24.0852ZM68.3523 14.0555C68.3523 11.7626 69.8684 11.0361 71.529 11.0361C72.8684 11.0361 74.6361 12.0555 75.7935 13.2916L78.7548 9.8C77.2761 7.8 74.2774 6.41806 71.8219 6.41806C66.9148 6.41806 63.3665 9.29161 63.3665 14.0555C63.3665 22.8942 74.169 20.089 74.169 25.0361C74.169 26.5613 72.6877 27.9084 70.9923 27.9084C68.3174 27.9084 67.4503 26.6013 66.2219 25.2181L62.9342 28.6361C65.0374 31.2168 67.631 32.5277 70.7368 32.5277C75.3987 32.5277 79.1484 29.6194 79.1484 25.0723C79.1484 15.2606 68.3445 18.3097 68.3445 14.0555H68.3523ZM135.183 28.3523C132.511 28.3523 131.751 27.1961 131.751 25.4258V17.5871H135.906V13.6155H131.751V8.37548L127.165 10.4335V26.4C127.165 30.4839 129.983 32.5419 133.846 32.5419C134.453 32.5523 135.059 32.5032 135.655 32.3974L136.774 28.2787C136.27 28.3135 135.69 28.3484 135.183 28.3484V28.3523ZM52.0568 13.0335C49.8168 13.0335 48.2529 13.6839 46.7406 15.1664V6.57419H42.2116V22.5006C42.2116 28.4619 46.5213 32.5471 51.3652 32.5471C56.7381 32.5471 61.4645 28.3897 61.4645 22.7923C61.4645 17.2645 57.1148 13.0374 52.0568 13.0374V13.0335ZM52.0284 27.9884C51.3534 27.9884 50.685 27.8554 50.0614 27.5971C49.4378 27.3388 48.8712 26.9602 48.3939 26.4829C47.9166 26.0056 47.538 25.439 47.2796 24.8154C47.0213 24.1918 46.8884 23.5234 46.8884 22.8484C46.8884 22.1734 47.0213 21.505 47.2796 20.8814C47.538 20.2578 47.9166 19.6911 48.3939 19.2139C48.8712 18.7366 49.4378 18.358 50.0614 18.0996C50.685 17.8413 51.3534 17.7084 52.0284 17.7084C53.3916 17.7084 54.699 18.2499 55.6629 19.2139C56.6269 20.1778 57.1684 21.4852 57.1684 22.8484C57.1684 24.2116 56.6269 25.519 55.6629 26.4829C54.699 27.4468 53.3916 27.9884 52.0284 27.9884V27.9884ZM101.244 22.5548C101.244 16.9471 96.5277 12.8 91.1445 12.8C86.3019 12.8 81.991 16.8839 81.991 22.8464V38.7819H86.52V30.1781C88.0297 31.6581 89.5961 32.311 91.8335 32.311C96.8916 32.311 101.243 28.0839 101.243 22.5548H101.244ZM96.9548 22.4981C96.9548 23.8613 96.4133 25.1687 95.4494 26.1326C94.4854 27.0965 93.1781 27.6381 91.8148 27.6381C90.4516 27.6381 89.1442 27.0965 88.1803 26.1326C87.2164 25.1687 86.6748 23.8613 86.6748 22.4981C86.6748 21.1348 87.2164 19.8275 88.1803 18.8635C89.1442 17.8996 90.4516 17.3581 91.8148 17.3581C93.1781 17.3581 94.4854 17.8996 95.4494 18.8635C96.4133 19.8275 96.9548 21.1348 96.9548 22.4981" fill="white"/>
<path d="M115.879 12.5806V8.02968C116.48 7.74861 116.989 7.30251 117.347 6.7433C117.705 6.1841 117.896 5.5348 117.899 4.87097V4.76645C117.899 2.83097 116.33 1.26194 114.395 1.26194H114.29C113.361 1.26194 112.469 1.63116 111.812 2.28838C111.155 2.94561 110.786 3.837 110.786 4.76645V4.87097C110.789 5.5348 110.98 6.1841 111.338 6.7433C111.696 7.30251 112.205 7.74861 112.806 8.02968V12.5806C111.078 12.8453 109.45 13.562 108.088 14.6581L95.6065 4.93677C95.6955 4.61548 95.742 4.28516 95.7471 3.95355C95.7486 3.17252 95.5185 2.40859 95.0858 1.75837C94.6531 1.10816 94.0373 0.60088 93.3163 0.300698C92.5952 0.000515342 91.8014 -0.0790819 91.0351 0.0719742C90.2688 0.22303 89.5645 0.597953 89.0114 1.14932C88.4582 1.70068 88.081 2.40372 87.9274 3.1695C87.7738 3.93529 87.8509 4.72941 88.1487 5.45142C88.4465 6.17344 88.9518 6.7909 89.6006 7.22572C90.2494 7.66054 91.0125 7.89317 91.7936 7.89419C92.4769 7.89098 93.1473 7.70856 93.7381 7.36516L106.028 16.929C104.924 18.597 104.348 20.5589 104.375 22.559C104.403 24.5591 105.032 26.5046 106.181 28.1419L102.443 31.8813C102.14 31.7847 101.826 31.7333 101.508 31.729C100.867 31.7295 100.241 31.9201 99.7079 32.2766C99.175 32.6331 98.7598 33.1395 98.5147 33.7319C98.2696 34.3243 98.2056 34.9761 98.3308 35.6048C98.456 36.2336 98.7648 36.8111 99.2181 37.2645C99.6715 37.7178 100.249 38.0266 100.878 38.1518C101.507 38.277 102.158 38.213 102.751 37.9679C103.343 37.7228 103.85 37.3075 104.206 36.7747C104.563 36.2419 104.753 35.6153 104.754 34.9742C104.749 34.657 104.698 34.3421 104.601 34.04L108.299 30.3406C109.505 31.269 110.908 31.9091 112.399 32.2118C113.891 32.5144 115.432 32.4717 116.904 32.0868C118.376 31.702 119.741 30.9852 120.894 29.9914C122.046 28.9975 122.956 27.7531 123.554 26.3534C124.151 24.9536 124.42 23.4357 124.34 21.9159C124.26 20.3961 123.834 18.9148 123.093 17.5854C122.352 16.256 121.317 15.1138 120.066 14.2463C118.816 13.3788 117.383 12.809 115.879 12.5806V12.5806ZM114.346 27.5484C113.662 27.5672 112.982 27.4488 112.345 27.2003C111.708 26.9517 111.128 26.578 110.638 26.1013C110.148 25.6245 109.758 25.0544 109.492 24.4245C109.226 23.7947 109.089 23.1179 109.089 22.4342C109.089 21.7505 109.226 21.0737 109.492 20.4439C109.758 19.814 110.148 19.2439 110.638 18.7671C111.128 18.2904 111.708 17.9167 112.345 17.6681C112.982 17.4196 113.662 17.3012 114.346 17.32C115.67 17.3664 116.925 17.925 117.846 18.8783C118.767 19.8315 119.282 21.105 119.283 22.4304C119.284 23.7558 118.77 25.0298 117.85 25.984C116.93 26.9382 115.676 27.4981 114.351 27.5458" fill="white"/>
</g>
<defs>
<clipPath id="clip0_303_751">
<rect width="136.774" height="40" fill="white"/>
</clipPath>
</defs>
</svg>
