<svg width="120" height="40" viewBox="0 0 120 40" fill="none" xmlns="http://www.w3.org/2000/svg">
<g clip-path="url(#clip0_303_755)">
<path d="M56.1438 31.0457H59.9673V14.3464H56.1438V31.0457ZM70.1307 21.1765C68.1699 20.5556 66.3725 20.0327 66.3725 18.8235V18.7582C66.3725 17.7778 67.2222 17.0915 68.7255 17.0915C69.4444 17.0915 70.2614 17.2549 71.1111 17.549C71.1111 17.549 71.1111 17.549 71.1438 17.549C71.2091 17.5817 71.2745 17.6144 71.3725 17.6471C71.9934 17.8431 73.5947 18.1046 75 15.9477C73.2353 14.7712 70.9477 14.0523 68.8562 14.0523C65.5228 14.0523 62.9085 15.9804 62.9085 19.1503V19.2157C62.9085 22.4183 65.6536 23.4314 68.1372 24.1176C70.098 24.7059 71.8627 25.1634 71.8627 26.4706V26.5359C71.8627 27.6471 70.915 28.3333 69.281 28.3333C68.2026 28.3333 66.9934 28.0392 65.7843 27.4837C65.4248 27.3529 63.6601 26.732 62.1242 28.8889C64.2157 30.5229 66.7974 31.3725 69.183 31.3725C72.647 31.3725 75.3921 29.6405 75.3921 26.1111V26.0457C75.3268 23.0392 72.5817 21.9281 70.1307 21.1765ZM45.7189 26.6013L41.2418 14.3137H37.1241L43.9869 31.1438H47.4183L54.2483 14.3464H50.2287L45.7189 26.6013ZM93.1045 13.9869C87.9738 13.9869 84.183 17.9412 84.183 22.7451C84.183 27.5163 87.9412 31.4052 93.0392 31.4052C98.2026 31.4052 101.993 27.451 101.993 22.6797C101.993 17.8758 98.2026 13.9869 93.1045 13.9869ZM93.1045 28.1046C90.1307 28.1046 88.0065 25.6536 88.0065 22.6797C88.0065 19.7386 89.9673 17.3203 93.0392 17.3203C96.0457 17.3203 98.1699 19.7712 98.1699 22.7451C98.1372 25.6863 96.1764 28.1046 93.1045 28.1046ZM113.333 13.9869C110.752 13.9869 109.183 15.3595 108.105 16.9281V14.3464H104.281V31.0457H108.105V21.6013C108.105 19.0196 109.64 17.451 111.863 17.451C114.15 17.451 115.425 18.9216 115.425 21.5359V31.0131H119.281V20.4248C119.281 16.5359 117.091 13.9869 113.333 13.9869ZM77.8431 31.0457H81.6666V14.3464H77.8431V31.0457Z" fill="white"/>
<path fill-rule="evenodd" clip-rule="evenodd" d="M3.62745 0H36.3726C38.366 0 40 1.63399 40 3.62745V36.3726C40 38.366 38.366 40 36.3726 40H3.62745C1.63399 40 0 38.366 0 36.3726V3.62745C0 1.63399 1.63399 0 3.62745 0ZM13.366 12.5817C14.7059 12.5817 15.817 11.5359 15.817 10.1634C15.817 8.79085 14.7059 7.7451 13.366 7.7451C12.0262 7.7451 10.915 8.79085 10.915 10.1634C10.915 11.5359 12.0262 12.5817 13.366 12.5817ZM8.30066 25.4575C8.16994 26.0784 8.0719 26.732 8.0719 27.2549C8.0719 29.3791 9.21569 30.7843 11.6667 30.7843C13.6928 30.7843 15.3268 29.5752 16.5033 27.6471L15.7843 30.5556H19.8039L22.0915 21.3399C22.6797 19.0196 23.7909 17.7778 25.4575 17.7778C26.7974 17.7778 27.6144 18.5948 27.6144 19.9673C27.6144 20.3595 27.5817 20.7843 27.451 21.2745L26.2745 25.5229C26.1111 26.1438 26.0131 26.732 26.0131 27.3203C26.0131 29.3464 27.1895 30.817 29.6732 30.817C31.7974 30.817 33.4967 29.4444 34.4118 26.1765L32.8431 25.5556C32.0588 27.7451 31.3726 28.1373 30.817 28.1373C30.2941 28.1373 30 27.7778 30 27.0588C30 26.732 30.0654 26.3725 30.1634 25.9477L31.3726 21.8301C31.6667 20.8497 31.7647 20 31.7647 19.2157C31.7647 16.1111 29.902 14.5098 27.6471 14.5098C25.5229 14.5098 23.366 16.4052 22.2876 18.4314L23.0719 14.8039H16.9281L16.0458 17.9739H18.9216L17.1569 25.0654C15.7516 28.1699 13.2026 28.2026 12.9085 28.1373C12.3856 28.0065 12.0588 27.8105 12.0588 27.1242C12.0588 26.732 12.1242 26.1765 12.3203 25.4902L15 14.8039H8.16994L7.28759 17.9739H10.1307L8.30066 25.4575Z" fill="white"/>
</g>
<defs>
<clipPath id="clip0_303_755">
<rect width="119.281" height="40" fill="white"/>
</clipPath>
</defs>
</svg>
