<svg width="147" height="19" viewBox="0 0 147 19" fill="none" xmlns="http://www.w3.org/2000/svg">
<path d="M10.8974 18C14.3609 18 16.0794 15.7791 16.0794 13.2146C16.0794 10.9937 14.5989 9.1959 12.7217 8.90507C14.3874 8.53493 15.7357 7.05436 15.7357 4.85994C15.7357 2.63909 14.0701 0.365354 10.5802 0.365354H0.586325V18H10.8974ZM9.54906 7.13367H5.13379V4.19897H9.54906C10.4744 4.19897 11.1089 4.80706 11.1089 5.6531C11.1089 6.52558 10.4744 7.13367 9.54906 7.13367ZM9.70769 14.1664H5.13379V10.9937H9.70769C10.8181 10.9937 11.4527 11.7076 11.4527 12.5801C11.4527 13.5319 10.7917 14.1664 9.70769 14.1664ZM33.6001 18L30.0044 11.5225C31.6436 10.9409 33.5207 9.30165 33.5207 6.23476C33.5207 2.95635 31.2999 0.365354 27.387 0.365354H18.5564V18H23.1039V12.0777H25.4305L28.3916 18H33.6001ZM26.6995 8.11191H23.1039V4.33117H26.6995C27.8893 4.33117 28.894 5.01857 28.894 6.20832C28.894 7.45094 27.8893 8.11191 26.6995 8.11191ZM44.9047 18V10.888L51.5673 0.365354H46.4117L42.631 6.86929L38.7973 0.365354H33.6682L40.3572 10.888V18H44.9047ZM64.503 18V14.0342H57.4174V0.365354H52.87V18H64.503ZM67.6947 3.16786C67.6947 1.21139 66.4256 0.100967 64.9979 0.100967C63.676 0.100967 62.5656 1.18496 62.5656 2.53333C62.5656 3.85527 63.4909 4.72775 64.6278 4.72775C64.8657 4.72775 65.1037 4.67487 65.2359 4.62199C64.9451 5.60023 63.8346 6.73709 62.9886 7.16011L64.6807 8.53493C66.5314 7.21299 67.6947 5.3094 67.6947 3.16786ZM76.7256 18.3173C81.4581 18.3173 84.0755 15.9642 84.0755 12.4214C84.0755 5.86461 74.1081 7.50382 74.1081 5.25652C74.1081 4.51624 74.6898 3.98746 76.0117 3.98746C77.7567 3.98746 79.6867 4.59555 81.1673 5.81174L83.6525 2.55977C81.7754 0.947007 79.3166 0.100967 76.4876 0.100967C71.9666 0.100967 69.4549 2.74484 69.4549 5.70598C69.4549 12.5007 79.4488 10.5707 79.4488 12.9766C79.4488 13.8227 78.497 14.4308 76.9371 14.4308C74.5312 14.4308 72.5747 13.3732 71.3056 12.1042L68.8997 15.5148C70.6711 17.2068 73.1563 18.3173 76.7256 18.3173ZM92.2305 18.3173C94.1869 18.3173 96.302 17.7621 97.5711 16.6252L95.8526 14.0871C95.1387 14.7745 93.5788 15.1711 92.6799 15.1711C90.8292 15.1711 89.7188 14.0871 89.4808 12.8973H98.5758V12.0248C98.5758 7.68889 95.8261 4.91282 92.0454 4.91282C88.0531 4.91282 85.2506 7.9004 85.2506 11.6018C85.2506 15.7527 88.2911 18.3173 92.2305 18.3173ZM94.6893 10.2534H89.428C89.5866 9.32809 90.274 8.05903 92.0454 8.05903C93.9225 8.05903 94.5835 9.35453 94.6893 10.2534ZM104.653 18V9.85687C105.182 9.14302 106.583 8.69356 107.64 8.69356C108.063 8.69356 108.407 8.74644 108.645 8.79932V4.88638C107.112 4.88638 105.499 5.75886 104.653 6.78997V5.23008H100.581V18H104.653ZM118.11 18L123.133 5.23008H118.824L115.916 13.3203L113.034 5.23008H108.751L113.774 18H118.11ZM130.494 18.3173C132.451 18.3173 134.566 17.7621 135.835 16.6252L134.116 14.0871C133.403 14.7745 131.843 15.1711 130.944 15.1711C129.093 15.1711 127.983 14.0871 127.745 12.8973H136.84V12.0248C136.84 7.68889 134.09 4.91282 130.309 4.91282C126.317 4.91282 123.515 7.9004 123.515 11.6018C123.515 15.7527 126.555 18.3173 130.494 18.3173ZM132.953 10.2534H127.692C127.85 9.32809 128.538 8.05903 130.309 8.05903C132.186 8.05903 132.847 9.35453 132.953 10.2534ZM142.917 18V9.85687C143.445 9.14302 144.847 8.69356 145.904 8.69356C146.327 8.69356 146.671 8.74644 146.909 8.79932V4.88638C145.375 4.88638 143.763 5.75886 142.917 6.78997V5.23008H138.845V18H142.917Z" fill="white"/>
</svg>
