<svg width="142" height="30" viewBox="0 0 142 30" fill="none" xmlns="http://www.w3.org/2000/svg">
<g clip-path="url(#clip0_303_795)">
<path d="M12.2665 14.4525C13.1275 14.4525 13.879 14.4825 14.545 14.604C15.493 14.7705 16.2955 16.092 16.2955 16.737C16.2955 17.067 16.2955 17.433 16.1515 17.967C15.9175 18.786 14.3095 21.732 13.6405 22.8405C12.835 21.534 10.939 17.844 10.2835 16.407C9.99854 15.804 9.85454 15.303 9.85454 15.057C9.85454 14.604 10.7545 14.4525 12.2665 14.4525V14.4525ZM1.52204 14.4525C2.32604 14.652 2.79704 14.8185 3.45704 16.0005C5.78054 20.265 8.10704 24.966 10.3705 29.5905C10.6555 29.8305 10.9885 29.8845 11.47 29.8845C11.935 29.8845 12.265 29.8305 12.562 29.592C13.6405 27.5565 16.486 22.0935 17.713 19.9725C19.141 22.5945 21.5995 27.3795 22.597 29.592C22.873 29.832 23.215 29.8845 23.6815 29.8845C24.154 29.8845 24.4945 29.8305 24.769 29.592C26.7774 25.1982 28.8946 20.8548 31.1185 16.566C31.8775 15.057 32.206 14.652 33.7705 14.361L34.4335 14.244C34.8115 13.8645 34.714 12.975 34.294 12.804C33.2515 12.8865 32.0215 12.9285 30.64 12.9285C29.458 12.9285 28.33 12.8865 26.761 12.804C26.287 12.975 26.287 13.9515 26.5765 14.244L27.3745 14.3985C28.189 14.565 28.561 14.7705 28.561 14.979C28.561 15.2655 28.417 15.8385 28.123 16.566C27.3745 18.4605 26.632 20.469 25.4815 22.8405C24.4435 20.8695 23.1205 18.2145 22.2625 16.2465C21.9835 15.555 21.8875 15.3015 21.8875 14.979C21.8875 14.7705 22.543 14.565 23.6395 14.361L24.3445 14.244C24.6865 14.0775 24.7225 12.8535 24.2035 12.804C21.4103 12.8864 18.616 12.9279 15.8215 12.9285H6.25604C4.26704 12.9285 2.75504 12.8865 0.814043 12.804C0.329543 13.0095 0.329543 13.9095 0.658043 14.244L1.52204 14.4525V14.4525Z" fill="white"/>
<path d="M41.08 14.19C42.6835 14.19 43.5895 15.0825 43.5895 16.437C43.5895 16.848 43.495 17.262 43.2595 17.379C42.73 17.667 41.974 17.7435 41.3125 17.7435H39.5635C38.0395 17.7435 37.3855 17.7135 37.3855 17.133C37.3855 15.819 39.091 14.1885 41.0815 14.1885L41.08 14.19ZM41.0305 29.829C43.87 29.829 47.3845 28.6395 49.321 25.161C49.321 24.4635 48.6025 24.1335 48.088 24.21C46.8085 26.1015 45.0025 26.34 43.681 26.34C39.28 26.34 37 23.3565 37 20.286C37 19.632 37.099 19.551 38.191 19.551H47.2735C48.7525 19.551 48.9835 18.978 48.9835 18.201C48.9835 15.0435 46.3285 12.3015 41.4025 12.3015C35.4925 12.3015 31.1815 16.317 31.1815 21.4785C31.1815 25.941 34.639 29.829 41.0305 29.829V29.829ZM61.081 14.4525C61.9465 14.4525 62.698 14.4825 63.364 14.604C64.312 14.7705 65.116 16.092 65.116 16.737C65.116 17.067 65.116 17.433 64.975 17.967C64.732 18.786 63.1255 21.732 62.4655 22.8405C61.651 21.534 59.7655 17.844 59.1025 16.407C58.8235 15.804 58.675 15.303 58.675 15.057C58.675 14.604 59.569 14.4525 61.081 14.4525V14.4525ZM50.338 14.4525C51.1495 14.652 51.616 14.8185 52.279 16.0005C54.595 20.265 56.9275 24.966 59.194 29.5905C59.482 29.8305 59.812 29.8845 60.286 29.8845C60.7555 29.8845 61.081 29.8305 61.372 29.592C62.467 27.5565 65.302 22.0935 66.5365 19.9725C67.9615 22.5945 70.4125 27.3795 71.41 29.592C71.695 29.832 72.025 29.8845 72.496 29.8845C72.9745 29.8845 73.3075 29.8305 73.588 29.592C75.5988 25.1987 77.7169 20.8554 79.9405 16.566C80.698 15.057 81.025 14.652 82.5865 14.361L83.2555 14.244C83.629 13.8645 83.53 12.975 83.11 12.804C82.063 12.8865 80.839 12.9285 79.459 12.9285C78.1651 12.9223 76.8716 12.8808 75.58 12.804C75.1 12.975 75.1 13.9515 75.391 14.244L76.195 14.3985C77.002 14.565 77.377 14.7705 77.377 14.979C77.377 15.2655 77.2345 15.8385 76.9555 16.566C76.195 18.4605 75.436 20.469 74.296 22.8405C73.258 20.8695 71.935 18.2145 71.083 16.2465C70.795 15.555 70.7005 15.3015 70.7005 14.979C70.7005 14.7705 71.359 14.565 72.4555 14.361L73.1605 14.244C73.4935 14.0775 73.543 12.8535 73.0195 12.804C69.9925 12.8865 67.6165 12.9285 64.6375 12.9285H55.0705C53.2558 12.9287 51.4413 12.8872 49.6285 12.804C49.159 13.0095 49.159 13.9095 49.489 14.244L50.338 14.4525V14.4525Z" fill="white"/>
<path d="M90.8815 14.19C93.571 14.19 94.8985 17.622 94.951 21.6C94.9915 25.287 94.087 27.9465 91.3855 27.9465C88.651 27.9465 87.0805 24.7875 87.0805 20.4945C87.0805 16.0365 88.795 14.1885 90.8815 14.1885V14.19ZM90.8815 29.829C96.6985 29.829 101.77 27.006 101.77 21.0195C101.77 15.2475 96.742 12.3015 91.159 12.3015C85.5685 12.3015 80.2165 15.534 80.2615 21.3945C80.317 27.0405 85.2355 29.829 90.8815 29.829V29.829Z" fill="white"/>
<path d="M109.838 15.771C110.131 15.771 110.551 15.816 111.635 16.59C112.243 17.085 112.813 17.331 113.48 17.331C114.992 17.331 116.515 16.554 116.515 14.6685C116.515 13.122 115.189 12.2535 113.9 12.2535C111.919 12.2535 110.551 13.6035 109.264 14.2965C108.889 14.2215 108.79 14.097 108.79 13.8075C108.79 13.4415 108.887 12.873 108.974 12.0465C108.79 11.8035 108.499 11.673 108.134 11.673C106.66 12.504 103.394 13.6035 101.209 14.142C100.879 14.382 100.879 15.12 101.209 15.3675L101.884 15.7365C102.779 16.2285 102.779 16.7175 102.779 18.3585V24.5385C102.779 27.4035 102.589 27.771 101.024 27.9L100.123 27.975C99.742 28.221 99.742 29.169 100.172 29.415C102.035 29.3243 103.899 29.2823 105.763 29.289C107.983 29.289 109.882 29.325 112.157 29.4135C112.583 29.169 112.583 28.221 112.201 27.975L110.686 27.861C109.123 27.7305 108.931 27.402 108.931 24.5385V18.234C108.931 16.68 109.171 15.771 109.84 15.771" fill="white"/>
<path d="M128.421 27.84L127.807 27.9675C127.423 28.335 127.516 29.19 127.991 29.3925C129.317 29.3115 131.017 29.2725 133.823 29.2725C136.568 29.2725 138.317 29.3115 139.781 29.3925C140.257 29.235 140.354 28.251 139.969 27.9675L139.265 27.8385C138.037 27.636 137.138 27.4245 136.475 26.901C135.284 25.9605 131.116 20.388 130.276 19.0785C130.032 18.7515 129.931 18.5085 129.931 18.381C129.931 18.261 129.981 18.099 130.213 17.847C130.879 17.2815 131.602 16.656 133.394 15.4695C134.668 14.6175 135.671 14.2095 136.57 14.0415L138.079 13.7535C138.418 13.434 138.371 12.519 137.887 12.321C135.1 12.693 131.167 12.894 128.938 12.894H127.807C127.334 13.065 127.282 13.959 127.708 14.3265L128.896 14.4975C129.317 14.5305 129.79 14.6925 129.79 14.9025C129.79 15.1485 129.562 15.5955 128.656 16.5315L126.673 18.5505C125.722 19.488 124.728 19.6935 123.922 19.6935C123.408 19.6935 123.255 19.5705 123.255 19.119V6.2655C123.255 3.6825 123.315 1.9605 123.408 0.285C123.222 0.075 122.88 0 122.598 0C120.177 0.8925 117.295 1.8855 115.356 2.2845C115.02 2.5365 115.02 3.276 115.356 3.5085L116.16 3.9285C117.103 4.422 117.103 4.8705 117.103 6.5175V24.5235C117.103 27.3885 116.913 27.717 115.201 27.8865L114.301 27.9675C113.928 28.2075 113.928 29.1525 114.349 29.3925C116.275 29.3067 118.202 29.2667 120.13 29.2725C122.311 29.2725 124.297 29.3115 125.82 29.3925C126.24 29.1525 126.24 28.2075 125.865 27.9675L125.112 27.8865C123.447 27.717 123.255 27.387 123.255 24.5235V22.1535C123.255 21.369 123.495 21.1695 123.822 21.1695C124.297 21.1695 124.678 21.3345 125.015 21.7725L128.372 26.205C128.752 26.691 129.175 27.345 129.175 27.522C129.175 27.6735 128.896 27.75 128.421 27.8385" fill="white"/>
</g>
<defs>
<clipPath id="clip0_303_795">
<rect width="141" height="30" fill="white" transform="translate(0.428589)"/>
</clipPath>
</defs>
</svg>
